<svg viewBox="0 0 25 25" xmlns="http://www.w3.org/2000/svg" xmlns:svg="http://www.w3.org/2000/svg">
 <metadata id="metadata3128">image/svg+xml</metadata>
  <path d="m12.5,4.5l0,-3l4,4l-4,4l0,-3c-3.309998,0 -6,2.689999 -6,6c0,1.009998 0.25,1.970001 0.699997,2.799999l-1.459999,1.459999c-0.779999,-1.23 -1.239998,-2.689999 -1.239998,-4.259998c0,-4.419998 3.580002,-8 8,-8zm0,14c3.309998,0 6,-2.689999 6,-6c0,-1.009998 -0.25,-1.970001 -0.699997,-2.799999l1.459999,-1.459999c0.779999,1.23 1.239998,2.689999 1.239998,4.259998c0,4.419998 -3.580002,8 -8,8l0,3l-4,-4l4,-4l0,3z" id="svg_1" fill="#ffffff" opacity="0.5"/>
</svg>
