
<svg width="340px" height="292px" viewBox="0 0 340 292" version="1.1" xmlns="http://www.w3.org/2000/svg" xmlns:xlink="http://www.w3.org/1999/xlink">
    <!-- Generator: Sketch 46 (44423) - http://www.bohemiancoding.com/sketch -->
    <desc>Created with Sketch.</desc>
    <defs></defs>
    <g id="Page-1" stroke="none" stroke-width="1" fill="none" fill-rule="evenodd">
        <g id="Test_V16_Empty_list" transform="translate(-1021.000000, -201.000000)">
            <g id="Group-8" transform="translate(1190.000000, 347.000000) scale(-1, 1) translate(-1190.000000, -347.000000) translate(1019.000000, 201.000000)">
                <ellipse id="Oval-2" fill="#D8D8D8" opacity="0.22486413" cx="46" cy="149.5" rx="35" ry="10.5"></ellipse>
                <g id="Group-5" transform="translate(50.000000, 104.500000) scale(-1, 1) translate(-50.000000, -104.500000) translate(0.000000, 60.000000)">
                    <path d="M99.974103,39.3733837 C99.974103,66.716316 77.5940718,88.8822604 49.9870515,88.8822604 C22.3798752,88.8822604 0,66.716316 0,39.3733837 C0,12.0302969 25.1418097,0 52.748986,0 C80.3560062,0 99.974103,12.0302969 99.974103,39.3733837" id="Fill-416" fill="#A6CD9F"></path>
                    <path d="M62.5450858,39.7794462 C62.5450858,44.6818628 58.4271451,48.6561146 53.3474259,48.6561146 C48.2677067,48.6561146 44.149766,44.6818628 44.149766,39.7794462 C44.149766,34.8770295 48.2677067,30.9027778 53.3474259,30.9027778 C58.4271451,30.9027778 62.5450858,34.8770295 62.5450858,39.7794462" id="Fill-452" fill="#F2F7E4"></path>
                    <path d="M9.96607832,51.0499679 C10.4676384,52.0142891 11.2738786,52.4515634 12.2353451,52.6890513 C12.4125682,52.7327787 12.5916633,52.8852839 12.707732,53.0348534 C13.0957195,53.5348603 13.5601501,53.7962978 14.2239566,53.7395912 C15.6476696,53.6178343 17.0735666,53.475527 18.5003997,53.4543586 C19.5255167,53.4393707 20.3433014,53.0217197 21.134097,52.4815391 C22.5392452,51.5220079 24.0634262,50.8860287 25.7381532,50.5144228 C26.5617101,50.3317874 27.2866711,49.7464888 28.1035198,49.492777 C29.1420534,49.170152 30.2256727,48.9838082 31.2958755,48.7676433 C32.0252047,48.620237 32.7612421,48.4922995 33.5005557,48.4093256 C34.7964995,48.2640825 35.9996197,48.4434731 37.1542218,49.1718516 C38.6197445,50.0966172 40.1724746,50.8888099 41.707888,51.7006259 C42.4164683,52.0754766 43.3014917,52.2173204 43.8776228,52.7214992 C44.7415853,53.4772266 45.782459,53.9900582 46.257342,55.2919922 C46.8885432,57.0222388 47.8723186,58.7381155 49.933473,59.299928 C50.5050799,59.455678 51.1284808,59.4229211 51.7030518,59.5715634 C52.1940034,59.6984193 52.6813669,59.9105669 53.1113201,60.1780304 C53.5679504,60.4621815 53.9428334,60.8721068 54.3793388,61.1924141 C54.5147523,61.2917665 54.7369052,61.3183429 54.9156883,61.3090721 C55.5813669,61.27477 56.2534418,61.1248915 56.907576,61.185461 C57.4729426,61.2376867 57.6738786,60.9594072 57.9531298,60.5938273 C58.4674824,59.9204558 58.9539098,59.1648829 59.6311329,58.698869 C60.0163123,58.4337231 60.8127242,58.5295218 61.3216165,58.7246728 C61.9131922,58.9514992 61.6365931,59.4770009 61.483395,59.995704 C60.583395,63.0444176 58.0266087,63.9251468 55.3713825,64.6944714 C55.2135042,64.7402075 54.9603061,64.6882909 54.8350331,64.5836849 C53.9815229,63.8712214 52.9971236,63.9626936 51.9791828,64.0042579 C49.8451735,64.0914037 47.7106961,64.2961346 45.5907273,63.6637093 C45.0417413,63.49977 44.2706025,63.7825304 43.6929114,64.0523117 C42.25781,64.7230565 40.7220846,64.706987 39.3489176,64.2885634 C38.2060159,63.9402891 37.0189644,63.4001086 36.2564059,62.1731138 C35.6230206,61.1540947 34.5682624,60.361902 33.5954075,59.600612 C33.3457975,59.4053065 32.6857351,59.6599454 32.2411173,59.7949905 C31.9013357,59.8982058 31.5677944,60.0964471 31.2943154,60.3259002 C30.1740346,61.2661172 28.783239,61.5732909 27.4316009,61.9447422 C27.0347211,62.0536745 26.5486056,61.9320721 26.1230206,61.8338013 C24.9560939,61.5638655 23.8052359,61.2251711 22.6367491,60.9628065 C21.8546899,60.7872787 21.0481376,60.7196016 20.2623342,60.5572075 C19.7813669,60.4577006 19.2996197,60.312612 18.8518817,60.1135981 C17.9060159,59.6933204 16.9818349,59.2252978 16.0506337,58.7731902 C15.9769988,58.7374974 15.883551,58.6868169 15.8562499,58.6202214 C15.1202125,56.8326502 13.4961875,57.1452318 12.0673264,57.0879072 C10.6628022,57.0315096 9.33206896,55.9615009 9.02692075,54.5121606 C8.70695195,52.9918985 8.93362902,52.1028256 9.96607832,51.0499679" id="Fill-458" fill="#1A1919"></path>
                    <path d="M20.2808112,39.4086304 C20.4347894,38.8097346 20.50078,38.3940922 20.649142,38.0098162 C20.9361934,37.2658318 21.2812793,36.5439429 21.5812793,35.804594 C22.2858034,34.0677034 24.4188768,33.6892988 25.5516381,34.7022919 C26.2132605,35.2940801 25.8179407,36.0939985 26.0193448,36.7735506 C26.0603744,36.9121495 26.0021841,37.1000384 26.0764431,37.2052624 C27.2074883,38.8088075 27.0301092,40.4967172 26.3096724,42.1535697 C25.851014,43.2082815 24.5084243,43.502785 23.4680187,43.0520679 C22.3229329,42.5559238 21.3953198,41.9709343 21.1024961,40.6365523 C20.9982839,40.1617311 20.5301092,39.765403 20.2808112,39.4086304" id="Fill-460" fill="#1A1919"></path>
                    <path d="M37.0957404,67.1059252 C36.8476905,67.5105971 36.6484705,67.9574512 36.3391101,68.3092794 C35.9636031,68.7362012 35.5508106,69.2814807 35.0537747,69.4182255 C34.2960524,69.6266648 33.4519026,69.5574425 32.6450384,69.5487898 C32.237082,69.5444634 31.8216374,69.4461925 31.4252256,69.3352516 C30.4979245,69.0761318 29.5877841,68.7550519 28.6561148,68.5137012 C27.8973004,68.3173141 27.1227295,68.1195363 26.3453504,68.0682377 C25.3420742,68.0017967 24.2447263,67.3429495 23.9192973,66.4458419 C23.6977685,65.8350484 24.236302,65.006854 24.9675033,65.0521266 C26.0907482,65.1218123 27.2080649,65.3330328 28.3191413,65.5323557 C29.7991725,65.7978106 31.260795,66.235703 32.7498745,66.3520519 C33.5948043,66.4180294 34.4765516,65.9790554 35.3461304,65.7865311 C36.6088449,65.5070155 36.9564268,65.7800415 37.0957404,67.1059252" id="Fill-462" fill="#1A1919"></path>
                    <path d="M50.5615536,44.4450446 C48.8445489,44.3869474 47.7618656,43.6641314 47.4787142,42.4896714 C47.2202119,41.4168814 47.9394007,39.5230047 49.0067954,38.9324526 C49.9002431,38.4380082 50.7763741,38.2592356 51.4999311,38.8246019 C52.196499,39.3686453 52.6838624,40.2129092 53.1578094,40.9884144 C53.622084,41.7481592 53.1397127,42.4541332 52.7287922,43.0595186 C52.1693539,43.8835412 51.3880746,44.4414908 50.5615536,44.4450446" id="Fill-464" fill="#1A1919"></path>
                </g>
                <ellipse id="Oval-2" fill="#D8D8D8" opacity="0.22486413" cx="264" cy="274.5" rx="76" ry="17.5"></ellipse>
                <g id="Group-7" transform="translate(155.000000, 0.000000)">
                    <g id="Group-6" transform="translate(93.500000, 137.500000) scale(-1, 1) translate(-93.500000, -137.500000) translate(0.000000, 0.000000)">
                        <path d="M184.161443,105.268075 C182.150912,55.0751346 152.136519,13.7438793 113.096383,2.36422639 C105.615961,-1.00131437 76.0947125,-0.579037108 69.6395339,2.40175544 C29.1499015,14.368894 12.6497477,32.3847494 6.47503061,90.1299834 C5.53826679,98.8904508 4.26928959,157.438988 4.67629271,169.455628 C7.84283712,262.946225 43.3157693,276.307472 93.5322979,274.854404 C143.748938,273.401134 189.693325,257.684009 186.52678,164.193512 C186.077708,150.936501 184.464943,112.844013 184.161443,105.268075 L0,240.032327" id="Fill-632" fill="#C7E7F1"></path>
                        <path d="M101.73587,121.297157 C101.73459,121.443741 101.733309,121.590325 101.732029,121.736753 C103.645765,123.120915 106.989521,122.528679 107.600192,121.158337 C106.60161,121.201349 105.492715,121.263772 104.382112,121.292498 C103.501098,121.315325 102.617951,121.297157 101.73587,121.297157 M104.001243,119.115946 C106.062419,119.009269 108.124661,118.911443 110.184557,118.792654 C111.517706,118.71579 112.59801,119.80989 112.05199,120.708026 C110.014712,124.058958 103.311197,125.847002 98.7202803,124.245604 C97.6632343,123.876815 96.6034145,123.486443 95.6494272,122.997778 C95.1853426,122.760045 94.589394,122.188461 94.7058953,121.915635 C94.9704768,121.29638 95.4795829,120.44312 96.1728293,120.26284 C98.4911185,119.6602 100.933164,119.308647 103.331041,118.870293 C103.534171,118.833026 103.761412,118.865325 103.977345,118.865325 C103.98524,118.948865 103.993348,119.032405 104.001243,119.115946" id="Fill-307" fill="#1A1919"></path>
                        <path d="M104.134318,107.003017 C104.584786,107.055812 105.055891,106.932986 105.517531,106.890284 C106.649053,106.785625 106.884451,106.203483 106.52476,105.174756 C106.198586,104.241215 106.039689,103.249135 105.710877,102.316837 C105.521721,101.781122 105.071874,101.339507 104.868287,100.806278 C104.689373,100.337178 104.465458,99.6635757 104.66889,99.3277062 C104.911425,98.9277062 105.616221,98.5545695 106.069792,98.6075198 C106.526311,98.6606254 107.156624,99.178172 107.293177,99.6210292 C107.591264,100.58811 107.539902,101.658452 107.78973,102.64634 C108.039714,103.634538 108.479164,104.575066 108.841959,105.534073 C109.189391,106.452551 109.627445,107.346029 109.876343,108.289973 C110.205154,109.536557 108.643958,111.019632 107.104021,111.017768 C105.30541,111.015594 103.60254,110.705967 102.173086,109.498669 C102.054844,109.398824 101.832171,109.376153 101.773671,109.259694 C101.314358,108.344476 101.004788,107.30783 99.7795415,107.086247 C99.7229033,107.075998 99.7134377,106.803483 99.6211098,106.361247 C101.259427,106.599756 102.693071,106.833917 104.134318,107.003017 Z" id="Fill-309" fill="#1A1919"></path>
                        <path d="M88.074324,101.739435 C88.2068418,103.477945 87.0622852,104.923131 85.4252093,105.084311 C84.3518772,105.190056 83.0425269,103.568783 82.8710606,102.061951 C82.7352842,100.869249 84.2266526,99.5540315 85.424899,99.4079135 C87.0514231,99.2094663 87.9442889,100.032913 88.074324,101.739435" id="Fill-311" fill="#1A1919"></path>
                        <path d="M118.016374,94.721371 C119.634674,94.6882964 120.714989,95.5966815 120.723679,96.9657809 C120.732213,98.3188865 119.607363,98.7987002 118.718377,99.1980791 C118.055167,99.4960604 117.024353,99.3820853 116.319246,99.076961 C115.435536,98.6946629 115.286104,97.770284 115.597071,96.8224579 C116.141107,95.1639176 116.599954,94.7504082 118.016374,94.721371" id="Fill-313" fill="#1A1919"></path>
                        <path d="M93.3300882,110.83529 C93.2695707,109.594607 93.2604155,108.538085 92.0803243,108.058427 C90.3746619,107.365259 86.8724058,109.392122 86.7468708,111.247402 C86.7006292,111.932029 86.9710959,113.09647 87.4032529,113.267433 C88.5946717,113.739017 90.0497295,114.209514 91.2102689,113.91883 C92.5658608,113.579389 93.1888807,112.11029 93.3300882,110.83529" id="Fill-315" fill="#FFFFFE"></path>
                        <path d="M117.750679,111.270378 C119.201237,111.370067 120.685778,110.027365 120.814261,108.499415 C120.924589,107.186216 119.984085,106.484042 117.969007,106.375347 C116.273276,106.283887 115.777809,106.875968 115.607894,109.197241 C115.532945,110.219756 116.532415,111.186527 117.750679,111.270378" id="Fill-317" fill="#FFFFFE"></path>
                    </g>
                </g>
            </g>
        </g>
    </g>
</svg>